<svg width="276" height="80" viewBox="0 0 276 80" fill="none" xmlns="http://www.w3.org/2000/svg">
<rect width="276" height="80" fill="black"/>
<path d="M22.5328 16.2H41.1568V22.6H29.5728V35.08H38.6608V41.48H29.5728V61H22.5328V16.2ZM45.1728 16.2H52.2128V54.6H63.7968V61H45.1728V16.2ZM77.7388 61.64C74.2828 61.64 71.6374 60.6587 69.8028 58.696C67.9681 56.7333 67.0508 53.96 67.0508 50.376V26.824C67.0508 23.24 67.9681 20.4667 69.8028 18.504C71.6374 16.5413 74.2828 15.56 77.7388 15.56C81.1948 15.56 83.8401 16.5413 85.6748 18.504C87.5094 20.4667 88.4268 23.24 88.4268 26.824V50.376C88.4268 53.96 87.5094 56.7333 85.6748 58.696C83.8401 60.6587 81.1948 61.64 77.7388 61.64ZM77.7388 55.24C80.1708 55.24 81.3868 53.768 81.3868 50.824V26.376C81.3868 23.432 80.1708 21.96 77.7388 21.96C75.3068 21.96 74.0908 23.432 74.0908 26.376V50.824C74.0908 53.768 75.3068 55.24 77.7388 55.24ZM92.1638 16.2H98.9478L102.084 50.632H102.212L105.54 16.2H113.22L116.548 50.632H116.676L119.812 16.2H125.892L121.348 61H112.58L109.38 30.792H109.252L106.052 61H96.7078L92.1638 16.2ZM140.013 61.64C136.642 61.64 134.061 60.68 132.269 58.76C130.519 56.84 129.645 54.1307 129.645 50.632V26.568C129.645 23.0693 130.519 20.36 132.269 18.44C134.061 16.52 136.642 15.56 140.013 15.56C143.383 15.56 145.943 16.52 147.693 18.44C149.485 20.36 150.381 23.0693 150.381 26.568V31.304H143.725V26.12C143.725 23.3467 142.551 21.96 140.205 21.96C137.858 21.96 136.685 23.3467 136.685 26.12V51.144C136.685 53.8747 137.858 55.24 140.205 55.24C142.551 55.24 143.725 53.8747 143.725 51.144V44.296H150.381V50.632C150.381 54.1307 149.485 56.84 147.693 58.76C145.943 60.68 143.383 61.64 140.013 61.64ZM155.233 16.2H162.273V34.44H169.825V16.2H176.865V61H169.825V40.84H162.273V61H155.233V16.2ZM188.188 16.2H197.724L205.02 61H197.98L196.7 52.104V52.232H188.7L187.42 61H180.892L188.188 16.2ZM195.868 46.152L192.732 24.008H192.604L189.532 46.152H195.868ZM209.075 16.2H219.507C223.134 16.2 225.779 17.0533 227.443 18.76C229.107 20.424 229.939 23.0053 229.939 26.504V29.256C229.939 33.9067 228.403 36.8507 225.331 38.088V38.216C227.038 38.728 228.233 39.7733 228.915 41.352C229.641 42.9307 230.003 45.0427 230.003 47.688V55.56C230.003 56.84 230.046 57.8853 230.131 58.696C230.217 59.464 230.43 60.232 230.771 61H223.603C223.347 60.2747 223.177 59.592 223.091 58.952C223.006 58.312 222.963 57.16 222.963 55.496V47.304C222.963 45.256 222.622 43.8267 221.939 43.016C221.299 42.2053 220.169 41.8 218.547 41.8H216.115V61H209.075V16.2ZM218.675 35.4C220.083 35.4 221.129 35.0373 221.811 34.312C222.537 33.5867 222.899 32.3707 222.899 30.664V27.208C222.899 25.5867 222.601 24.4133 222.003 23.688C221.449 22.9627 220.553 22.6 219.315 22.6H216.115V35.4H218.675ZM240.907 22.6H233.547V16.2H255.307V22.6H247.947V61H240.907V22.6Z" fill="white"/>
</svg>
